<svg width="1920" height="1080" viewBox="0 0 1920 1080" xmlns="http://www.w3.org/2000/svg">
  <defs>
    <linearGradient id="bg" x1="0%" y1="0%" x2="100%" y2="100%">
      <stop offset="0%" style="stop-color:#1e40af;stop-opacity:1" />
      <stop offset="50%" style="stop-color:#1d4ed8;stop-opacity:1" />
      <stop offset="100%" style="stop-color:#1e3a8a;stop-opacity:1" />
    </linearGradient>
  </defs>
  <rect width="100%" height="100%" fill="url(#bg)"/>
  <g opacity="0.1">
    <circle cx="200" cy="200" r="3" fill="white"/>
    <circle cx="400" cy="300" r="2" fill="white"/>
    <circle cx="600" cy="150" r="2" fill="white"/>
    <circle cx="800" cy="400" r="3" fill="white"/>
    <circle cx="1000" cy="250" r="2" fill="white"/>
    <circle cx="1200" cy="350" r="2" fill="white"/>
    <circle cx="1400" cy="200" r="3" fill="white"/>
    <circle cx="1600" cy="300" r="2" fill="white"/>
    <circle cx="1800" cy="450" r="2" fill="white"/>
    <circle cx="300" cy="600" r="2" fill="white"/>
    <circle cx="500" cy="700" r="3" fill="white"/>
    <circle cx="700" cy="550" r="2" fill="white"/>
    <circle cx="900" cy="800" r="2" fill="white"/>
    <circle cx="1100" cy="650" r="3" fill="white"/>
    <circle cx="1300" cy="750" r="2" fill="white"/>
    <circle cx="1500" cy="600" r="2" fill="white"/>
    <circle cx="1700" cy="700" r="2" fill="white"/>
    <circle cx="1900" cy="550" r="3" fill="white"/>
  </g>
</svg>
